<svg width="40" height="41" viewBox="0 0 40 41" fill="none" xmlns="http://www.w3.org/2000/svg">
<g id="ci:caret-circle-down">
<path id="Vector" d="M25 18.8333L20 23.8333L15 18.8333M35 20.5C35 18.5302 34.612 16.5796 33.8582 14.7597C33.1044 12.9399 31.9995 11.2863 30.6066 9.8934C29.2137 8.50052 27.5601 7.39563 25.7403 6.64181C23.9204 5.88799 21.9698 5.5 20 5.5C18.0302 5.5 16.0796 5.88799 14.2597 6.64181C12.4399 7.39563 10.7863 8.50052 9.3934 9.8934C8.00052 11.2863 6.89563 12.9399 6.14181 14.7597C5.38799 16.5796 5 18.5302 5 20.5C5 24.4782 6.58035 28.2936 9.3934 31.1066C12.2064 33.9196 16.0218 35.5 20 35.5C23.9782 35.5 27.7936 33.9196 30.6066 31.1066C33.4196 28.2936 35 24.4782 35 20.5Z" stroke="#189B90" stroke-width="2" stroke-linecap="round" stroke-linejoin="round"/>
</g>
</svg>
